<?xml version="1.0" encoding="iso-8859-1"?>
<!-- Uploaded to: SVG Repo, www.svgrepo.com, Generator: SVG Repo Mixer Tools -->
<svg fill="#000000" height="800px" width="800px" version="1.1" id="Layer_1" xmlns="http://www.w3.org/2000/svg" xmlns:xlink="http://www.w3.org/1999/xlink" 
	 viewBox="0 0 512 512" xml:space="preserve">
	<g>
		<g>
			<path d="M267.636,325.818h-23.273c-6.982,0-11.636-4.655-11.636-11.636s4.655-11.636,11.636-11.636h34.909
				c6.982,0,11.636-4.655,11.636-11.636s-4.655-11.636-11.636-11.636h-11.636v-11.636c0-6.982-4.655-11.636-11.636-11.636
				s-11.636,4.655-11.636,11.636v11.636c-19.782,0-34.909,15.127-34.909,34.909c0,19.782,15.127,34.909,34.909,34.909h23.273
				c6.982,0,11.636,4.655,11.636,11.636s-4.655,11.636-11.636,11.636h-34.909c-6.982,0-11.636,4.655-11.636,11.636
				s4.655,11.636,11.636,11.636h11.636v11.636c0,6.982,4.655,11.636,11.636,11.636s11.636-4.655,11.636-11.636v-11.636
				c19.782,0,34.909-15.127,34.909-34.909C302.545,340.945,287.418,325.818,267.636,325.818z"/>
		</g>
	</g>
	<g>
		<g>
			<path d="M424.727,252.509L345.6,166.4c-4.655-4.655-11.636-4.655-16.291-1.164c-4.655,4.655-4.655,11.636-1.164,16.291
				l79.127,86.109c29.091,32.582,45.382,74.473,45.382,117.527v68.655c0,19.782-15.127,34.909-34.909,34.909H93.091
				c-19.782,0-34.909-15.127-34.909-34.909v-67.491c0-44.218,16.291-86.109,45.382-117.527l75.636-82.618h111.709
				c6.982,0,11.636-4.655,11.636-11.636s-4.655-11.636-11.636-11.636H174.545c-3.491,0-5.818,1.164-8.145,3.491l-79.127,86.109
				c-33.745,37.236-52.364,84.945-52.364,133.818v67.491c0,32.582,25.6,58.182,58.182,58.182h325.818
				c32.582,0,58.182-25.6,58.182-58.182v-67.491C477.091,337.455,458.473,289.745,424.727,252.509z"/>
		</g>
	</g>
	<g>
	<g>
			<path d="M370.036,4.655C367.709,2.327,364.218,0,360.727,0H151.273c-3.491,0-6.982,2.327-9.309,4.655
				c-2.327,3.491-3.491,6.982-1.164,10.473l23.273,69.818c1.164,4.655,5.818,8.145,10.473,8.145c1.164,0,2.327,0,3.491-1.164
				c5.818-2.327,9.309-8.145,6.982-15.127l-17.455-53.527h176.873l-15.127,46.545H221.091c-6.982,0-11.636,4.655-11.636,11.636
				s4.655,11.636,11.636,11.636h116.364c4.655,0,9.309-3.491,10.473-8.145L371.2,15.127C373.527,11.636,372.364,8.145,370.036,4.655z
				"/>
	</g>
	</g>
	<g>
		<g>
			<path d="M337.454,116.364H174.545c-6.982,0-11.636,4.655-11.636,11.636s4.655,11.636,11.636,11.636h162.909
				c6.982,0,11.636-4.655,11.636-11.636S344.436,116.364,337.454,116.364z"/>
		</g>
	</g>
</svg>